STARTFONT 2.1
FONT -Monotype-Gill Sans-Medium-I-Normal--12-120-72-72-P-52-ISO8859-1
SIZE 12 72 72
FONTBOUNDINGBOX 18 16 -5 -3

STARTPROPERTIES 22
FOUNDRY "Monotype"
FAMILY_NAME "Gill Sans"
WEIGHT_NAME "Medium"
SLANT "I"
SETWIDTH_NAME "Normal"
ADD_STYLE_NAME ""
PIXEL_SIZE 12
POINT_SIZE 120
RESOLUTION_X 72
RESOLUTION_Y 72
SPACING "P"
AVERAGE_WIDTH 52
CHARSET_REGISTRY "ISO8859"
CHARSET_ENCODING "1"
FULL_NAME "GillSans-Italic"
COPYRIGHT "Copyright (c) 1991 The Monotype Corporation plc."
WEIGHT 10
X_HEIGHT 6
QUAD_WIDTH 7
DEFAULT_CHAR 32
FONT_DESCENT 3
FONT_ASCENT 11
ENDPROPERTIES

CHARS 190

STARTCHAR space
ENCODING 32
SWIDTH 278 0
DWIDTH 3 0
BBX 1 1 0 0
BITMAP
00
ENDCHAR

STARTCHAR exclam
ENCODING 33
SWIDTH 250 0
DWIDTH 3 0
BBX 2 9 0 0
BITMAP
40
40
40
40
40
40
40
00
80
ENDCHAR

STARTCHAR quotedbl
ENCODING 34
SWIDTH 354 0
DWIDTH 4 0
BBX 3 3 1 6
BITMAP
A0
A0
A0
ENDCHAR

STARTCHAR numbersign
ENCODING 35
SWIDTH 584 0
DWIDTH 8 0
BBX 7 8 1 1
BITMAP
24
24
FE
24
48
FE
48
48
ENDCHAR

STARTCHAR dollar
ENCODING 36
SWIDTH 500 0
DWIDTH 6 0
BBX 5 10 0 -1
BITMAP
78
50
D0
60
30
38
28
A8
F0
20
ENDCHAR

STARTCHAR percent
ENCODING 37
SWIDTH 708 0
DWIDTH 8 0
BBX 8 9 1 0
BITMAP
62
94
9C
68
10
16
2A
6B
C6
ENDCHAR

STARTCHAR ampersand
ENCODING 38
SWIDTH 688 0
DWIDTH 8 0
BBX 7 9 1 0
BITMAP
30
28
68
30
50
92
8C
CC
76
ENDCHAR

STARTCHAR quoteright
ENCODING 39
SWIDTH 198 0
DWIDTH 2 0
BBX 2 3 1 6
BITMAP
C0
40
80
ENDCHAR

STARTCHAR parenleft
ENCODING 40
SWIDTH 292 0
DWIDTH 4 0
BBX 4 12 1 -3
BITMAP
30
20
40
40
80
80
80
80
80
80
80
40
ENDCHAR

STARTCHAR parenright
ENCODING 41
SWIDTH 292 0
DWIDTH 4 0
BBX 3 12 0 -3
BITMAP
60
20
20
20
20
20
20
20
20
40
40
80
ENDCHAR

STARTCHAR asterisk
ENCODING 42
SWIDTH 448 0
DWIDTH 5 0
BBX 5 6 1 3
BITMAP
20
A8
78
70
A8
20
ENDCHAR

STARTCHAR plus
ENCODING 43
SWIDTH 584 0
DWIDTH 7 0
BBX 5 5 1 1
BITMAP
20
20
F8
20
20
ENDCHAR

STARTCHAR comma
ENCODING 44
SWIDTH 198 0
DWIDTH 2 0
BBX 2 3 0 -2
BITMAP
C0
40
80
ENDCHAR

STARTCHAR minus
ENCODING 45
SWIDTH 584 0
DWIDTH 7 0
BBX 6 1 1 4
BITMAP
FC
ENDCHAR

STARTCHAR period
ENCODING 46
SWIDTH 198 0
DWIDTH 2 0
BBX 1 1 0 0
BITMAP
80
ENDCHAR

STARTCHAR slash
ENCODING 47
SWIDTH 281 0
DWIDTH 4 0
BBX 3 12 0 -3
BITMAP
20
20
20
20
40
40
40
40
40
80
80
80
ENDCHAR

STARTCHAR zero
ENCODING 48
SWIDTH 521 0
DWIDTH 6 0
BBX 5 9 1 0
BITMAP
38
48
48
88
88
88
88
90
60
ENDCHAR

STARTCHAR one
ENCODING 49
SWIDTH 521 0
DWIDTH 6 0
BBX 2 9 2 0
BITMAP
40
40
40
40
40
40
80
80
80
ENDCHAR

STARTCHAR two
ENCODING 50
SWIDTH 521 0
DWIDTH 6 0
BBX 5 9 0 0
BITMAP
38
48
08
08
10
10
20
40
F8
ENDCHAR

STARTCHAR three
ENCODING 51
SWIDTH 521 0
DWIDTH 6 0
BBX 5 9 0 0
BITMAP
78
48
08
08
30
18
08
98
F0
ENDCHAR

STARTCHAR four
ENCODING 52
SWIDTH 521 0
DWIDTH 6 0
BBX 5 9 0 0
BITMAP
08
18
38
30
50
F8
10
10
10
ENDCHAR

STARTCHAR five
ENCODING 53
SWIDTH 521 0
DWIDTH 6 0
BBX 6 9 0 0
BITMAP
3C
20
20
70
08
08
08
98
F0
ENDCHAR

STARTCHAR six
ENCODING 54
SWIDTH 521 0
DWIDTH 6 0
BBX 5 9 1 0
BITMAP
10
20
60
70
C8
88
88
90
70
ENDCHAR

STARTCHAR seven
ENCODING 55
SWIDTH 521 0
DWIDTH 6 0
BBX 5 9 1 0
BITMAP
F8
10
10
20
20
20
40
40
80
ENDCHAR

STARTCHAR eight
ENCODING 56
SWIDTH 521 0
DWIDTH 6 0
BBX 5 9 0 0
BITMAP
38
48
48
48
70
C8
88
88
70
ENDCHAR

STARTCHAR nine
ENCODING 57
SWIDTH 521 0
DWIDTH 6 0
BBX 5 9 1 0
BITMAP
70
C8
88
98
78
10
20
20
40
ENDCHAR

STARTCHAR colon
ENCODING 58
SWIDTH 198 0
DWIDTH 2 0
BBX 2 6 0 0
BITMAP
40
00
00
00
00
80
ENDCHAR

STARTCHAR semicolon
ENCODING 59
SWIDTH 198 0
DWIDTH 2 0
BBX 2 7 0 -1
BITMAP
40
00
00
00
C0
40
80
ENDCHAR

STARTCHAR less
ENCODING 60
SWIDTH 584 0
DWIDTH 7 0
BBX 6 7 1 1
BITMAP
04
18
60
80
60
18
04
ENDCHAR

STARTCHAR equal
ENCODING 61
SWIDTH 584 0
DWIDTH 7 0
BBX 6 4 1 2
BITMAP
FC
00
00
FC
ENDCHAR

STARTCHAR greater
ENCODING 62
SWIDTH 584 0
DWIDTH 7 0
BBX 6 7 1 1
BITMAP
80
60
18
04
18
60
80
ENDCHAR

STARTCHAR question
ENCODING 63
SWIDTH 354 0
DWIDTH 4 0
BBX 4 9 1 0
BITMAP
60
B0
30
20
40
40
40
00
80
ENDCHAR

STARTCHAR at
ENCODING 64
SWIDTH 1010 0
DWIDTH 12 0
BBX 11 12 1 -3
BITMAP
1F00
30C0
4D40
5320
A320
A220
A260
A640
9BA0
4040
2080
1F00
ENDCHAR

STARTCHAR A
ENCODING 65
SWIDTH 521 0
DWIDTH 6 0
BBX 6 9 0 0
BITMAP
18
18
38
28
28
7C
44
C4
84
ENDCHAR

STARTCHAR B
ENCODING 66
SWIDTH 510 0
DWIDTH 6 0
BBX 6 9 0 0
BITMAP
70
48
48
48
78
C8
8C
88
F0
ENDCHAR

STARTCHAR C
ENCODING 67
SWIDTH 552 0
DWIDTH 7 0
BBX 6 9 1 0
BITMAP
1C
60
40
C0
80
80
80
44
78
ENDCHAR

STARTCHAR D
ENCODING 68
SWIDTH 656 0
DWIDTH 8 0
BBX 7 9 0 0
BITMAP
78
4C
46
42
42
C2
86
8C
F8
ENDCHAR

STARTCHAR E
ENCODING 69
SWIDTH 510 0
DWIDTH 6 0
BBX 6 9 0 0
BITMAP
7C
40
40
40
78
C0
80
80
FC
ENDCHAR

STARTCHAR F
ENCODING 70
SWIDTH 417 0
DWIDTH 5 0
BBX 5 9 0 0
BITMAP
78
40
40
40
70
C0
80
80
80
ENDCHAR

STARTCHAR G
ENCODING 71
SWIDTH 604 0
DWIDTH 7 0
BBX 7 9 0 0
BITMAP
1E
60
40
80
80
8E
84
44
3C
ENDCHAR

STARTCHAR H
ENCODING 72
SWIDTH 698 0
DWIDTH 8 0
BBX 8 9 0 0
BITMAP
41
43
43
42
7E
C2
82
82
82
ENDCHAR

STARTCHAR I
ENCODING 73
SWIDTH 240 0
DWIDTH 3 0
BBX 2 9 0 0
BITMAP
40
40
40
40
40
C0
80
80
80
ENDCHAR

STARTCHAR J
ENCODING 74
SWIDTH 240 0
DWIDTH 3 0
BBX 4 12 -1 -3
BITMAP
10
10
10
10
10
10
30
20
20
20
20
C0
ENDCHAR

STARTCHAR K
ENCODING 75
SWIDTH 563 0
DWIDTH 7 0
BBX 7 9 0 0
BITMAP
46
48
50
60
60
D0
98
88
84
ENDCHAR

STARTCHAR L
ENCODING 76
SWIDTH 417 0
DWIDTH 5 0
BBX 5 9 0 0
BITMAP
40
40
40
40
40
C0
80
80
F8
ENDCHAR

STARTCHAR M
ENCODING 77
SWIDTH 813 0
DWIDTH 10 0
BBX 9 9 0 0
BITMAP
1080
3180
3180
3280
4A80
4C80
4C80
C880
8880
ENDCHAR

STARTCHAR N
ENCODING 78
SWIDTH 688 0
DWIDTH 8 0
BBX 8 9 0 0
BITMAP
41
62
62
52
52
8A
8E
86
82
ENDCHAR

STARTCHAR O
ENCODING 79
SWIDTH 656 0
DWIDTH 8 0
BBX 7 9 1 0
BITMAP
3C
64
42
82
82
86
84
4C
78
ENDCHAR

STARTCHAR P
ENCODING 80
SWIDTH 448 0
DWIDTH 5 0
BBX 5 9 0 0
BITMAP
70
48
48
48
70
C0
80
80
80
ENDCHAR

STARTCHAR Q
ENCODING 81
SWIDTH 656 0
DWIDTH 8 0
BBX 8 12 1 -3
BITMAP
3C
64
42
C2
82
82
84
84
48
30
11
0E
ENDCHAR

STARTCHAR R
ENCODING 82
SWIDTH 531 0
DWIDTH 6 0
BBX 6 9 0 0
BITMAP
78
48
48
48
70
D0
88
88
84
ENDCHAR

STARTCHAR S
ENCODING 83
SWIDTH 458 0
DWIDTH 5 0
BBX 5 9 1 0
BITMAP
38
48
40
40
20
10
10
90
F0
ENDCHAR

STARTCHAR T
ENCODING 84
SWIDTH 510 0
DWIDTH 6 0
BBX 6 9 1 0
BITMAP
FC
20
20
20
20
20
20
60
60
ENDCHAR

STARTCHAR U
ENCODING 85
SWIDTH 635 0
DWIDTH 8 0
BBX 7 9 1 0
BITMAP
42
42
C6
84
84
84
84
CC
78
ENDCHAR

STARTCHAR V
ENCODING 86
SWIDTH 510 0
DWIDTH 6 0
BBX 6 9 1 0
BITMAP
84
88
C8
50
50
70
60
60
40
ENDCHAR

STARTCHAR W
ENCODING 87
SWIDTH 927 0
DWIDTH 11 0
BBX 11 9 1 0
BITMAP
8420
8C60
CC40
4C40
5280
5280
7300
2300
2200
ENDCHAR

STARTCHAR X
ENCODING 88
SWIDTH 667 0
DWIDTH 8 0
BBX 9 9 0 0
BITMAP
6180
2200
1600
1C00
0800
1C00
3400
6200
C300
ENDCHAR

STARTCHAR Y
ENCODING 89
SWIDTH 490 0
DWIDTH 6 0
BBX 6 9 1 0
BITMAP
8C
48
50
30
20
20
20
20
60
ENDCHAR

STARTCHAR Z
ENCODING 90
SWIDTH 583 0
DWIDTH 7 0
BBX 8 9 0 0
BITMAP
7F
02
04
08
18
10
20
40
FE
ENDCHAR

STARTCHAR bracketleft
ENCODING 91
SWIDTH 333 0
DWIDTH 4 0
BBX 4 12 0 -3
BITMAP
70
40
40
40
40
40
40
40
80
80
80
E0
ENDCHAR

STARTCHAR backslash
ENCODING 92
SWIDTH 281 0
DWIDTH 3 0
BBX 2 9 1 0
BITMAP
80
80
80
40
40
40
40
40
40
ENDCHAR

STARTCHAR bracketright
ENCODING 93
SWIDTH 333 0
DWIDTH 4 0
BBX 4 12 0 -3
BITMAP
70
10
10
10
30
20
20
20
20
20
20
E0
ENDCHAR

STARTCHAR asciicircum
ENCODING 94
SWIDTH 469 0
DWIDTH 6 0
BBX 5 5 1 4
BITMAP
20
50
50
50
88
ENDCHAR

STARTCHAR underscore
ENCODING 95
SWIDTH 500 0
DWIDTH 7 0
BBX 7 1 0 -3
BITMAP
FE
ENDCHAR

STARTCHAR quoteleft
ENCODING 96
SWIDTH 198 0
DWIDTH 2 0
BBX 2 3 1 6
BITMAP
40
80
C0
ENDCHAR

STARTCHAR a
ENCODING 97
SWIDTH 469 0
DWIDTH 6 0
BBX 5 6 0 0
BITMAP
38
48
88
98
90
70
ENDCHAR

STARTCHAR b
ENCODING 98
SWIDTH 469 0
DWIDTH 6 0
BBX 5 9 0 0
BITMAP
40
40
40
70
48
88
88
90
E0
ENDCHAR

STARTCHAR c
ENCODING 99
SWIDTH 385 0
DWIDTH 5 0
BBX 4 6 0 0
BITMAP
30
40
80
80
90
70
ENDCHAR

STARTCHAR d
ENCODING 100
SWIDTH 469 0
DWIDTH 6 0
BBX 5 9 0 0
BITMAP
08
08
08
38
48
88
88
90
70
ENDCHAR

STARTCHAR e
ENCODING 101
SWIDTH 438 0
DWIDTH 5 0
BBX 4 6 0 0
BITMAP
70
D0
F0
80
90
70
ENDCHAR

STARTCHAR f
ENCODING 102
SWIDTH 271 0
DWIDTH 3 0
BBX 5 12 0 -3
BITMAP
38
60
40
E0
40
40
40
80
80
80
80
80
ENDCHAR

STARTCHAR g
ENCODING 103
SWIDTH 427 0
DWIDTH 5 0
BBX 5 9 0 -3
BITMAP
78
58
48
58
70
40
70
88
70
ENDCHAR

STARTCHAR h
ENCODING 104
SWIDTH 469 0
DWIDTH 6 0
BBX 5 9 0 0
BITMAP
40
40
40
78
48
C8
88
90
90
ENDCHAR

STARTCHAR i
ENCODING 105
SWIDTH 188 0
DWIDTH 2 0
BBX 2 9 0 0
BITMAP
40
00
00
40
40
80
80
80
80
ENDCHAR

STARTCHAR j
ENCODING 106
SWIDTH 188 0
DWIDTH 2 0
BBX 4 12 0 -3
BITMAP
30
00
00
20
20
20
20
20
20
20
40
C0
ENDCHAR

STARTCHAR k
ENCODING 107
SWIDTH 458 0
DWIDTH 5 0
BBX 5 9 0 0
BITMAP
40
40
40
58
70
E0
A0
90
88
ENDCHAR

STARTCHAR l
ENCODING 108
SWIDTH 188 0
DWIDTH 2 0
BBX 2 9 0 0
BITMAP
40
40
40
40
40
80
80
80
80
ENDCHAR

STARTCHAR m
ENCODING 109
SWIDTH 740 0
DWIDTH 9 0
BBX 8 6 0 0
BITMAP
7F
4D
89
89
91
93
ENDCHAR

STARTCHAR n
ENCODING 110
SWIDTH 469 0
DWIDTH 6 0
BBX 5 6 0 0
BITMAP
70
48
88
88
90
90
ENDCHAR

STARTCHAR o
ENCODING 111
SWIDTH 448 0
DWIDTH 5 0
BBX 5 6 0 0
BITMAP
70
D0
88
90
90
60
ENDCHAR

STARTCHAR p
ENCODING 112
SWIDTH 490 0
DWIDTH 6 0
BBX 6 10 1 -3
BITMAP
20
38
64
A4
24
2C
78
40
40
40
ENDCHAR

STARTCHAR q
ENCODING 113
SWIDTH 469 0
DWIDTH 6 0
BBX 5 9 0 -3
BITMAP
38
48
88
98
90
70
10
10
10
ENDCHAR

STARTCHAR r
ENCODING 114
SWIDTH 313 0
DWIDTH 4 0
BBX 4 6 0 0
BITMAP
70
40
80
80
80
80
ENDCHAR

STARTCHAR s
ENCODING 115
SWIDTH 354 0
DWIDTH 4 0
BBX 4 6 0 0
BITMAP
60
90
40
20
90
E0
ENDCHAR

STARTCHAR t
ENCODING 116
SWIDTH 281 0
DWIDTH 3 0
BBX 3 7 0 0
BITMAP
40
E0
40
40
40
80
60
ENDCHAR

STARTCHAR u
ENCODING 117
SWIDTH 469 0
DWIDTH 6 0
BBX 5 6 0 0
BITMAP
C8
88
90
90
90
F0
ENDCHAR

STARTCHAR v
ENCODING 118
SWIDTH 375 0
DWIDTH 5 0
BBX 4 6 0 0
BITMAP
90
90
60
60
40
40
ENDCHAR

STARTCHAR w
ENCODING 119
SWIDTH 615 0
DWIDTH 7 0
BBX 7 6 0 0
BITMAP
92
92
B4
6C
48
48
ENDCHAR

STARTCHAR x
ENCODING 120
SWIDTH 427 0
DWIDTH 5 0
BBX 6 6 0 0
BITMAP
4C
38
30
30
50
C8
ENDCHAR

STARTCHAR y
ENCODING 121
SWIDTH 375 0
DWIDTH 5 0
BBX 5 9 0 -3
BITMAP
C8
50
50
60
60
60
40
40
80
ENDCHAR

STARTCHAR z
ENCODING 122
SWIDTH 458 0
DWIDTH 5 0
BBX 6 6 0 0
BITMAP
7C
10
30
20
40
F8
ENDCHAR

STARTCHAR braceleft
ENCODING 123
SWIDTH 333 0
DWIDTH 4 0
BBX 3 12 1 -3
BITMAP
60
40
40
40
40
40
C0
40
40
40
40
60
ENDCHAR

STARTCHAR bar
ENCODING 124
SWIDTH 260 0
DWIDTH 3 0
BBX 3 12 0 -3
BITMAP
20
20
20
20
40
40
40
40
40
80
80
80
ENDCHAR

STARTCHAR braceright
ENCODING 125
SWIDTH 333 0
DWIDTH 4 0
BBX 3 12 0 -3
BITMAP
C0
40
40
40
40
40
60
40
40
40
40
C0
ENDCHAR

STARTCHAR asciitilde
ENCODING 126
SWIDTH 584 0
DWIDTH 7 0
BBX 6 2 1 4
BITMAP
E4
9C
ENDCHAR

STARTCHAR exclamdown
ENCODING 161
SWIDTH 250 0
DWIDTH 3 0
BBX 2 8 0 -3
BITMAP
40
00
C0
80
80
80
80
80
ENDCHAR

STARTCHAR cent
ENCODING 162
SWIDTH 385 0
DWIDTH 5 0
BBX 5 12 0 -3
BITMAP
08
10
10
70
60
A0
A0
B0
F0
40
40
C0
ENDCHAR

STARTCHAR sterling
ENCODING 163
SWIDTH 469 0
DWIDTH 6 0
BBX 6 9 0 0
BITMAP
0C
10
20
20
F0
40
40
40
F8
ENDCHAR

STARTCHAR currency
ENCODING 164
SWIDTH 552 0
DWIDTH 7 0
BBX 7 8 0 1
BITMAP
82
7E
6C
44
44
6C
FC
82
ENDCHAR

STARTCHAR yen
ENCODING 165
SWIDTH 552 0
DWIDTH 7 0
BBX 8 9 0 0
BITMAP
43
64
2C
28
FC
10
FC
20
20
ENDCHAR

STARTCHAR brokenbar
ENCODING 166
SWIDTH 260 0
DWIDTH 3 0
BBX 3 12 0 -3
BITMAP
20
20
20
60
00
00
40
40
40
80
80
80
ENDCHAR

STARTCHAR section
ENCODING 167
SWIDTH 490 0
DWIDTH 6 0
BBX 5 12 0 -3
BITMAP
38
28
60
30
58
88
C8
48
30
10
90
E0
ENDCHAR

STARTCHAR dieresis
ENCODING 168
SWIDTH 333 0
DWIDTH 4 0
BBX 3 1 1 8
BITMAP
A0
ENDCHAR

STARTCHAR copyright
ENCODING 169
SWIDTH 740 0
DWIDTH 9 0
BBX 9 9 0 0
BITMAP
3E00
7F00
F380
A080
A080
A280
DD80
6300
3E00
ENDCHAR

STARTCHAR ordfeminine
ENCODING 170
SWIDTH 313 0
DWIDTH 4 0
BBX 3 4 1 5
BITMAP
60
A0
A0
E0
ENDCHAR

STARTCHAR guillemotleft
ENCODING 171
SWIDTH 438 0
DWIDTH 5 0
BBX 6 6 0 0
BITMAP
58
28
28
2C
58
B0
ENDCHAR

STARTCHAR logicalnot
ENCODING 172
SWIDTH 584 0
DWIDTH 7 0
BBX 6 4 1 1
BITMAP
FC
04
04
04
ENDCHAR

STARTCHAR hyphen
ENCODING 173
SWIDTH 250 0
DWIDTH 3 0
BBX 3 1 0 2
BITMAP
E0
ENDCHAR

STARTCHAR registered
ENCODING 174
SWIDTH 740 0
DWIDTH 9 0
BBX 10 9 0 0
BITMAP
1E00
6180
5E80
9240
9E40
9440
5280
6180
1E00
ENDCHAR

STARTCHAR macron
ENCODING 175
SWIDTH 333 0
DWIDTH 4 0
BBX 4 1 1 8
BITMAP
F0
ENDCHAR

STARTCHAR degree
ENCODING 176
SWIDTH 396 0
DWIDTH 5 0
BBX 4 4 0 5
BITMAP
60
90
90
60
ENDCHAR

STARTCHAR plusminus
ENCODING 177
SWIDTH 584 0
DWIDTH 7 0
BBX 5 8 1 0
BITMAP
20
20
F8
20
20
20
00
F8
ENDCHAR

STARTCHAR twosuperior
ENCODING 178
SWIDTH 323 0
DWIDTH 4 0
BBX 3 5 -4 4
BITMAP
60
20
20
40
E0
ENDCHAR

STARTCHAR threesuperior
ENCODING 179
SWIDTH 323 0
DWIDTH 4 0
BBX 3 5 -4 4
BITMAP
60
20
40
20
C0
ENDCHAR

STARTCHAR acute
ENCODING 180
SWIDTH 333 0
DWIDTH 4 0
BBX 2 2 2 7
BITMAP
40
80
ENDCHAR

STARTCHAR mu
ENCODING 181
SWIDTH 552 0
DWIDTH 7 0
BBX 6 8 0 -2
BITMAP
64
44
4C
48
48
B8
80
80
ENDCHAR

STARTCHAR paragraph
ENCODING 182
SWIDTH 542 0
DWIDTH 7 0
BBX 6 12 0 -3
BITMAP
7C
E8
E8
E8
68
28
28
28
28
28
28
28
ENDCHAR

STARTCHAR periodcentered
ENCODING 183
SWIDTH 260 0
DWIDTH 3 0
BBX 1 1 1 3
BITMAP
80
ENDCHAR

STARTCHAR cedilla
ENCODING 184
SWIDTH 333 0
DWIDTH 4 0
BBX 2 3 1 -3
BITMAP
40
40
C0
ENDCHAR

STARTCHAR onesuperior
ENCODING 185
SWIDTH 323 0
DWIDTH 4 0
BBX 1 5 -5 4
BITMAP
80
80
80
80
80
ENDCHAR

STARTCHAR ordmasculine
ENCODING 186
SWIDTH 302 0
DWIDTH 4 0
BBX 3 4 1 5
BITMAP
60
A0
A0
C0
ENDCHAR

STARTCHAR guillemotright
ENCODING 187
SWIDTH 438 0
DWIDTH 5 0
BBX 6 6 0 0
BITMAP
2C
58
90
A0
90
50
ENDCHAR

STARTCHAR onequarter
ENCODING 188
SWIDTH 844 0
DWIDTH 10 0
BBX 8 9 3 0
BITMAP
83
84
84
88
91
33
23
47
82
ENDCHAR

STARTCHAR onehalf
ENCODING 189
SWIDTH 844 0
DWIDTH 10 0
BBX 8 9 3 0
BITMAP
83
84
84
88
93
31
21
42
87
ENDCHAR

STARTCHAR threequarters
ENCODING 190
SWIDTH 844 0
DWIDTH 10 0
BBX 9 9 4 0
BITMAP
6180
2200
4200
2400
C880
1980
1180
2380
4100
ENDCHAR

STARTCHAR questiondown
ENCODING 191
SWIDTH 354 0
DWIDTH 4 0
BBX 4 8 0 -3
BITMAP
30
00
20
20
40
80
A0
60
ENDCHAR

STARTCHAR Agrave
ENCODING 192
SWIDTH 521 0
DWIDTH 6 0
BBX 6 12 0 0
BITMAP
10
08
00
18
18
38
28
28
7C
44
C4
84
ENDCHAR

STARTCHAR Aacute
ENCODING 193
SWIDTH 521 0
DWIDTH 6 0
BBX 6 12 0 0
BITMAP
04
08
00
18
18
38
28
28
7C
44
C4
84
ENDCHAR

STARTCHAR Acircumflex
ENCODING 194
SWIDTH 521 0
DWIDTH 6 0
BBX 7 12 0 0
BITMAP
0C
14
02
18
18
38
28
28
7C
44
C4
84
ENDCHAR

STARTCHAR Atilde
ENCODING 195
SWIDTH 521 0
DWIDTH 6 0
BBX 7 11 0 0
BITMAP
1E
00
18
18
38
28
28
7C
44
C4
84
ENDCHAR

STARTCHAR Adieresis
ENCODING 196
SWIDTH 521 0
DWIDTH 6 0
BBX 6 11 0 0
BITMAP
14
00
18
18
38
28
28
7C
44
C4
84
ENDCHAR

STARTCHAR Aring
ENCODING 197
SWIDTH 521 0
DWIDTH 6 0
BBX 6 13 0 0
BITMAP
1C
14
1C
00
18
18
38
28
28
7C
44
C4
84
ENDCHAR

STARTCHAR AE
ENCODING 198
SWIDTH 833 0
DWIDTH 10 0
BBX 10 9 0 0
BITMAP
0FC0
0E00
1400
1400
3F80
2400
4400
4400
87C0
ENDCHAR

STARTCHAR Ccedilla
ENCODING 199
SWIDTH 552 0
DWIDTH 7 0
BBX 6 12 1 -3
BITMAP
1C
60
40
C0
80
80
80
44
78
20
20
60
ENDCHAR

STARTCHAR Egrave
ENCODING 200
SWIDTH 510 0
DWIDTH 6 0
BBX 6 12 0 0
BITMAP
20
10
00
7C
40
40
40
78
C0
80
80
FC
ENDCHAR

STARTCHAR Eacute
ENCODING 201
SWIDTH 510 0
DWIDTH 6 0
BBX 6 12 0 0
BITMAP
08
10
00
7C
40
40
40
78
C0
80
80
FC
ENDCHAR

STARTCHAR Ecircumflex
ENCODING 202
SWIDTH 510 0
DWIDTH 6 0
BBX 6 12 0 0
BITMAP
18
28
00
7C
40
40
40
78
C0
80
80
FC
ENDCHAR

STARTCHAR Edieresis
ENCODING 203
SWIDTH 510 0
DWIDTH 6 0
BBX 6 11 0 0
BITMAP
28
00
7C
40
40
40
78
C0
80
80
FC
ENDCHAR

STARTCHAR Igrave
ENCODING 204
SWIDTH 240 0
DWIDTH 3 0
BBX 2 12 0 0
BITMAP
80
40
00
40
40
40
40
40
C0
80
80
80
ENDCHAR

STARTCHAR Iacute
ENCODING 205
SWIDTH 240 0
DWIDTH 3 0
BBX 3 12 0 0
BITMAP
20
40
00
40
40
40
40
40
C0
80
80
80
ENDCHAR

STARTCHAR Icircumflex
ENCODING 206
SWIDTH 240 0
DWIDTH 3 0
BBX 4 12 0 0
BITMAP
60
A0
10
40
40
40
40
40
C0
80
80
80
ENDCHAR

STARTCHAR Idieresis
ENCODING 207
SWIDTH 240 0
DWIDTH 3 0
BBX 3 11 0 0
BITMAP
A0
00
40
40
40
40
40
C0
80
80
80
ENDCHAR

STARTCHAR Eth
ENCODING 208
SWIDTH 656 0
DWIDTH 8 0
BBX 7 9 0 0
BITMAP
38
64
42
42
F2
42
42
44
F8
ENDCHAR

STARTCHAR Ntilde
ENCODING 209
SWIDTH 688 0
DWIDTH 8 0
BBX 8 11 0 0
BITMAP
1E
00
41
62
62
52
52
8A
8E
86
82
ENDCHAR

STARTCHAR Ograve
ENCODING 210
SWIDTH 656 0
DWIDTH 8 0
BBX 7 12 1 0
BITMAP
10
08
00
3C
64
42
82
82
86
84
4C
78
ENDCHAR

STARTCHAR Oacute
ENCODING 211
SWIDTH 656 0
DWIDTH 8 0
BBX 7 12 1 0
BITMAP
04
08
00
3C
64
42
82
82
86
84
4C
78
ENDCHAR

STARTCHAR Ocircumflex
ENCODING 212
SWIDTH 656 0
DWIDTH 8 0
BBX 7 12 1 0
BITMAP
18
28
00
3C
64
42
82
82
86
84
4C
78
ENDCHAR

STARTCHAR Otilde
ENCODING 213
SWIDTH 656 0
DWIDTH 8 0
BBX 7 11 1 0
BITMAP
3C
00
3C
64
42
82
82
86
84
4C
78
ENDCHAR

STARTCHAR Odieresis
ENCODING 214
SWIDTH 656 0
DWIDTH 8 0
BBX 7 11 1 0
BITMAP
14
00
3C
64
42
82
82
86
84
4C
78
ENDCHAR

STARTCHAR multiply
ENCODING 215
SWIDTH 584 0
DWIDTH 7 0
BBX 5 5 1 2
BITMAP
88
50
20
50
88
ENDCHAR

STARTCHAR Oslash
ENCODING 216
SWIDTH 656 0
DWIDTH 8 0
BBX 8 9 1 0
BITMAP
3E
67
46
8A
92
B6
E4
4C
F8
ENDCHAR

STARTCHAR Ugrave
ENCODING 217
SWIDTH 635 0
DWIDTH 8 0
BBX 7 12 1 0
BITMAP
10
08
00
42
42
C6
84
84
84
84
CC
78
ENDCHAR

STARTCHAR Uacute
ENCODING 218
SWIDTH 635 0
DWIDTH 8 0
BBX 7 12 1 0
BITMAP
08
10
00
42
42
C6
84
84
84
84
CC
78
ENDCHAR

STARTCHAR Ucircumflex
ENCODING 219
SWIDTH 635 0
DWIDTH 8 0
BBX 7 12 1 0
BITMAP
18
28
04
42
42
C6
84
84
84
84
CC
78
ENDCHAR

STARTCHAR Udieresis
ENCODING 220
SWIDTH 635 0
DWIDTH 8 0
BBX 7 11 1 0
BITMAP
28
00
42
42
C6
84
84
84
84
CC
78
ENDCHAR

STARTCHAR Yacute
ENCODING 221
SWIDTH 490 0
DWIDTH 6 0
BBX 6 12 1 0
BITMAP
10
20
00
8C
48
50
30
20
20
20
20
60
ENDCHAR

STARTCHAR Thorn
ENCODING 222
SWIDTH 448 0
DWIDTH 5 0
BBX 5 9 0 0
BITMAP
40
40
70
48
48
C8
F0
80
80
ENDCHAR

STARTCHAR germandbls
ENCODING 223
SWIDTH 500 0
DWIDTH 6 0
BBX 5 9 0 0
BITMAP
38
48
48
58
48
88
88
98
B0
ENDCHAR

STARTCHAR agrave
ENCODING 224
SWIDTH 469 0
DWIDTH 6 0
BBX 5 9 0 0
BITMAP
20
10
00
38
48
88
98
90
70
ENDCHAR

STARTCHAR aacute
ENCODING 225
SWIDTH 469 0
DWIDTH 6 0
BBX 5 9 0 0
BITMAP
08
10
00
38
48
88
98
90
70
ENDCHAR

STARTCHAR acircumflex
ENCODING 226
SWIDTH 469 0
DWIDTH 6 0
BBX 5 9 0 0
BITMAP
30
50
00
38
48
88
98
90
70
ENDCHAR

STARTCHAR atilde
ENCODING 227
SWIDTH 469 0
DWIDTH 6 0
BBX 6 8 0 0
BITMAP
3C
00
38
48
88
98
90
70
ENDCHAR

STARTCHAR adieresis
ENCODING 228
SWIDTH 469 0
DWIDTH 6 0
BBX 5 8 0 0
BITMAP
28
00
38
48
88
98
90
70
ENDCHAR

STARTCHAR aring
ENCODING 229
SWIDTH 469 0
DWIDTH 6 0
BBX 5 10 0 0
BITMAP
38
28
38
00
38
48
88
98
90
70
ENDCHAR

STARTCHAR ae
ENCODING 230
SWIDTH 646 0
DWIDTH 8 0
BBX 7 6 0 0
BITMAP
6E
12
7E
90
92
EC
ENDCHAR

STARTCHAR ccedilla
ENCODING 231
SWIDTH 385 0
DWIDTH 5 0
BBX 4 9 0 -3
BITMAP
30
40
80
80
90
70
20
20
60
ENDCHAR

STARTCHAR egrave
ENCODING 232
SWIDTH 438 0
DWIDTH 5 0
BBX 4 9 0 0
BITMAP
40
20
00
70
D0
F0
80
90
70
ENDCHAR

STARTCHAR eacute
ENCODING 233
SWIDTH 438 0
DWIDTH 5 0
BBX 4 9 0 0
BITMAP
10
20
00
70
D0
F0
80
90
70
ENDCHAR

STARTCHAR ecircumflex
ENCODING 234
SWIDTH 438 0
DWIDTH 5 0
BBX 5 9 0 0
BITMAP
30
50
08
70
D0
F0
80
90
70
ENDCHAR

STARTCHAR edieresis
ENCODING 235
SWIDTH 438 0
DWIDTH 5 0
BBX 4 8 0 0
BITMAP
50
00
70
D0
F0
80
90
70
ENDCHAR

STARTCHAR igrave
ENCODING 236
SWIDTH 188 0
DWIDTH 2 0
BBX 2 9 0 0
BITMAP
80
40
00
40
40
80
80
80
80
ENDCHAR

STARTCHAR iacute
ENCODING 237
SWIDTH 188 0
DWIDTH 2 0
BBX 3 9 0 0
BITMAP
20
40
00
40
40
80
80
80
80
ENDCHAR

STARTCHAR icircumflex
ENCODING 238
SWIDTH 188 0
DWIDTH 2 0
BBX 4 9 0 0
BITMAP
60
A0
10
40
40
80
80
80
80
ENDCHAR

STARTCHAR idieresis
ENCODING 239
SWIDTH 188 0
DWIDTH 2 0
BBX 3 8 0 0
BITMAP
A0
00
40
40
80
80
80
80
ENDCHAR

STARTCHAR eth
ENCODING 240
SWIDTH 448 0
DWIDTH 5 0
BBX 5 9 0 0
BITMAP
38
30
70
78
D8
88
90
90
60
ENDCHAR

STARTCHAR ntilde
ENCODING 241
SWIDTH 469 0
DWIDTH 6 0
BBX 6 8 0 0
BITMAP
3C
00
70
48
88
88
90
90
ENDCHAR

STARTCHAR ograve
ENCODING 242
SWIDTH 448 0
DWIDTH 5 0
BBX 5 9 0 0
BITMAP
20
10
00
70
D0
88
90
90
60
ENDCHAR

STARTCHAR oacute
ENCODING 243
SWIDTH 448 0
DWIDTH 5 0
BBX 5 9 0 0
BITMAP
10
20
00
70
D0
88
90
90
60
ENDCHAR

STARTCHAR ocircumflex
ENCODING 244
SWIDTH 448 0
DWIDTH 5 0
BBX 5 9 0 0
BITMAP
30
50
08
70
D0
88
90
90
60
ENDCHAR

STARTCHAR otilde
ENCODING 245
SWIDTH 448 0
DWIDTH 5 0
BBX 5 8 0 0
BITMAP
78
00
70
D0
88
90
90
60
ENDCHAR

STARTCHAR odieresis
ENCODING 246
SWIDTH 448 0
DWIDTH 5 0
BBX 5 8 0 0
BITMAP
28
00
70
D0
88
90
90
60
ENDCHAR

STARTCHAR divide
ENCODING 247
SWIDTH 584 0
DWIDTH 7 0
BBX 6 5 1 2
BITMAP
30
00
FC
00
30
ENDCHAR

STARTCHAR oslash
ENCODING 248
SWIDTH 448 0
DWIDTH 5 0
BBX 5 6 0 0
BITMAP
78
D0
B8
F0
D0
E0
ENDCHAR

STARTCHAR ugrave
ENCODING 249
SWIDTH 469 0
DWIDTH 6 0
BBX 5 9 0 0
BITMAP
20
10
00
C8
88
90
90
90
F0
ENDCHAR

STARTCHAR uacute
ENCODING 250
SWIDTH 469 0
DWIDTH 6 0
BBX 5 9 0 0
BITMAP
10
20
00
C8
88
90
90
90
F0
ENDCHAR

STARTCHAR ucircumflex
ENCODING 251
SWIDTH 469 0
DWIDTH 6 0
BBX 5 9 0 0
BITMAP
30
50
08
C8
88
90
90
90
F0
ENDCHAR

STARTCHAR udieresis
ENCODING 252
SWIDTH 469 0
DWIDTH 6 0
BBX 5 8 0 0
BITMAP
28
00
C8
88
90
90
90
F0
ENDCHAR

STARTCHAR yacute
ENCODING 253
SWIDTH 375 0
DWIDTH 5 0
BBX 5 12 0 -3
BITMAP
10
20
00
C8
50
50
60
60
60
40
40
80
ENDCHAR

STARTCHAR thorn
ENCODING 254
SWIDTH 490 0
DWIDTH 6 0
BBX 5 12 0 -3
BITMAP
60
40
40
70
48
48
48
58
F0
80
80
80
ENDCHAR

STARTCHAR ydieresis
ENCODING 255
SWIDTH 375 0
DWIDTH 5 0
BBX 5 11 0 -3
BITMAP
28
00
C8
50
50
60
60
60
40
40
80
ENDCHAR
ENDFONT
